<svg xmlns="http://www.w3.org/2000/svg" version="1.1" height="464" width="760" viewBox="0 0 760 464" class="diagram" text-anchor="middle" font-family="monospace" font-size="13px" stroke-linecap="round">
<path d="M 8,16 L 8,64" fill="none" stroke="black"/>
<path d="M 16,112 L 16,144" fill="none" stroke="black"/>
<path d="M 16,208 L 16,256" fill="none" stroke="black"/>
<path d="M 40,144 L 40,192" fill="none" stroke="black"/>
<path d="M 40,272 L 40,320" fill="none" stroke="black"/>
<path d="M 72,272 L 72,320" fill="none" stroke="black"/>
<path d="M 120,272 L 120,320" fill="none" stroke="black"/>
<path d="M 144,144 L 144,184" fill="none" stroke="black"/>
<path d="M 168,16 L 168,64" fill="none" stroke="black"/>
<path d="M 168,96 L 168,128" fill="none" stroke="black"/>
<path d="M 168,208 L 168,256" fill="none" stroke="black"/>
<path d="M 176,160 L 176,176" fill="none" stroke="black"/>
<path d="M 184,304 L 184,344" fill="none" stroke="black"/>
<path d="M 192,32 L 192,40" fill="none" stroke="black"/>
<path d="M 216,32 L 216,40" fill="none" stroke="black"/>
<path d="M 216,160 L 216,176" fill="none" stroke="black"/>
<path d="M 240,40 L 240,48" fill="none" stroke="black"/>
<path d="M 240,288 L 240,320" fill="none" stroke="black"/>
<path d="M 264,40 L 264,48" fill="none" stroke="black"/>
<path d="M 288,32 L 288,40" fill="none" stroke="black"/>
<path d="M 288,288 L 288,312" fill="none" stroke="black"/>
<path d="M 290,312 L 290,344" fill="none" stroke="black"/><path d="M 286,312 L 286,344" fill="none" stroke="black"/>
<path d="M 288,344 L 288,368" fill="none" stroke="black"/>
<path d="M 296,192 L 296,256" fill="none" stroke="black"/>
<path d="M 296,448 L 296,456" fill="none" stroke="black"/>
<path d="M 312,208 L 312,240" fill="none" stroke="black"/>
<path d="M 320,256 L 320,288" fill="none" stroke="black"/>
<path d="M 320,448 L 320,456" fill="none" stroke="black"/>
<path d="M 336,144 L 336,184" fill="none" stroke="black"/>
<path d="M 352,264 L 352,288" fill="none" stroke="black"/>
<path d="M 360,448 L 360,456" fill="none" stroke="black"/>
<path d="M 376,208 L 376,240" fill="none" stroke="black"/>
<path d="M 384,448 L 384,456" fill="none" stroke="black"/>
<path d="M 394,16 L 394,48" fill="none" stroke="black"/><path d="M 390,16 L 390,48" fill="none" stroke="black"/>
<path d="M 392,192 L 392,256" fill="none" stroke="black"/>
<path d="M 424,448 L 424,456" fill="none" stroke="black"/>
<path d="M 448,256 L 448,304" fill="none" stroke="black"/>
<path d="M 448,448 L 448,456" fill="none" stroke="black"/>
<path d="M 464,96 L 464,160" fill="none" stroke="black"/>
<path d="M 472,256 L 472,304" fill="none" stroke="black"/>
<path d="M 488,256 L 488,304" fill="none" stroke="black"/>
<path d="M 496,104 L 496,152" fill="none" stroke="black"/>
<path d="M 512,256 L 512,304" fill="none" stroke="black"/>
<path d="M 528,96 L 528,160" fill="none" stroke="black"/>
<path d="M 560,240 L 560,272" fill="none" stroke="black"/>
<path d="M 576,16 L 576,72" fill="none" stroke="black"/>
<path d="M 576,88 L 576,128" fill="none" stroke="black"/>
<path d="M 592,80 L 592,120" fill="none" stroke="black"/>
<path d="M 592,136 L 592,160" fill="none" stroke="black"/>
<path d="M 608,16 L 608,128" fill="none" stroke="black"/>
<path d="M 608,272 L 608,288" fill="none" stroke="black"/>
<path d="M 642,32 L 642,64" fill="none" stroke="black"/><path d="M 638,32 L 638,64" fill="none" stroke="black"/>
<path d="M 640,64 L 640,96" fill="none" stroke="black"/>
<path d="M 640,352 L 640,376" fill="none" stroke="black"/>
<path d="M 674,32 L 674,56" fill="none" stroke="black"/><path d="M 670,32 L 670,56" fill="none" stroke="black"/>
<path d="M 672,72 L 672,96" fill="none" stroke="black"/>
<path d="M 672,160 L 672,200" fill="none" stroke="black"/>
<path d="M 672,304 L 672,320" fill="none" stroke="black"/>
<path d="M 680,384 L 680,416" fill="none" stroke="black"/>
<path d="M 696,304 L 696,336" fill="none" stroke="black"/>
<path d="M 704,32 L 704,56" fill="none" stroke="black"/>
<path d="M 706,56 L 706,96" fill="none" stroke="black"/><path d="M 702,56 L 702,96" fill="none" stroke="black"/>
<path d="M 712,344 L 712,384" fill="none" stroke="black"/>
<path d="M 720,168 L 720,240" fill="none" stroke="black"/>
<path d="M 728,304 L 728,336" fill="none" stroke="black"/>
<path d="M 736,32 L 736,64" fill="none" stroke="black"/>
<path d="M 738,72 L 738,96" fill="none" stroke="black"/><path d="M 734,72 L 734,96" fill="none" stroke="black"/>
<path d="M 8,16 L 168,16" fill="none" stroke="black"/>
<path d="M 576,16 L 608,16" fill="none" stroke="black"/>
<path d="M 192,32 L 216,32" fill="none" stroke="black"/>
<path d="M 288,32 L 312,32" fill="none" stroke="black"/>
<path d="M 240,48 L 264,48" fill="none" stroke="black"/>
<path d="M 480,48 L 504,48" fill="none" stroke="black"/>
<path d="M 8,64 L 168,64" fill="none" stroke="black"/>
<path d="M 608,64 L 640,64" fill="none" stroke="black"/>
<path d="M 648,62 L 704,62" fill="none" stroke="black"/><path d="M 648,66 L 704,66" fill="none" stroke="black"/>
<path d="M 704,64 L 752,64" fill="none" stroke="black"/>
<path d="M 552,80 L 592,80" fill="none" stroke="black"/>
<path d="M 32,96 L 168,96" fill="none" stroke="black"/>
<path d="M 200,96 L 248,96" fill="none" stroke="black"/>
<path d="M 296,96 L 384,96" fill="none" stroke="black"/>
<path d="M 464,96 L 528,96" fill="none" stroke="black"/>
<path d="M 200,128 L 208,128" fill="none" stroke="black"/>
<path d="M 240,128 L 248,128" fill="none" stroke="black"/>
<path d="M 472,128 L 520,128" fill="none" stroke="black"/>
<path d="M 576,128 L 608,128" fill="none" stroke="black"/>
<path d="M 672,128 L 744,128" fill="none" stroke="black"/>
<path d="M 16,144 L 152,144" fill="none" stroke="black"/>
<path d="M 192,144 L 200,144" fill="none" stroke="black"/>
<path d="M 272,144 L 408,144" fill="none" stroke="black"/>
<path d="M 240,160 L 256,160" fill="none" stroke="black"/>
<path d="M 464,160 L 528,160" fill="none" stroke="black"/>
<path d="M 656,160 L 728,160" fill="none" stroke="black"/>
<path d="M 48,174 L 136,174" fill="none" stroke="black"/><path d="M 48,178 L 136,178" fill="none" stroke="black"/>
<path d="M 136,192 L 160,192" fill="none" stroke="black"/>
<path d="M 232,192 L 256,192" fill="none" stroke="black"/>
<path d="M 296,192 L 392,192" fill="none" stroke="black"/>
<path d="M 512,192 L 536,192" fill="none" stroke="black"/>
<path d="M 584,192 L 608,192" fill="none" stroke="black"/>
<path d="M 16,208 L 168,208" fill="none" stroke="black"/>
<path d="M 312,208 L 376,208" fill="none" stroke="black"/>
<path d="M 392,208 L 416,208" fill="none" stroke="black"/>
<path d="M 168,224 L 200,224" fill="none" stroke="black"/>
<path d="M 256,224 L 288,224" fill="none" stroke="black"/>
<path d="M 312,240 L 376,240" fill="none" stroke="black"/>
<path d="M 400,240 L 416,240" fill="none" stroke="black"/>
<path d="M 16,256 L 168,256" fill="none" stroke="black"/>
<path d="M 216,256 L 240,256" fill="none" stroke="black"/>
<path d="M 296,256 L 392,256" fill="none" stroke="black"/>
<path d="M 448,256 L 472,256" fill="none" stroke="black"/>
<path d="M 488,256 L 512,256" fill="none" stroke="black"/>
<path d="M 696,256 L 704,256" fill="none" stroke="black"/>
<path d="M 40,272 L 120,272" fill="none" stroke="black"/>
<path d="M 544,272 L 560,272" fill="none" stroke="black"/>
<path d="M 120,304 L 160,304" fill="none" stroke="black"/>
<path d="M 224,304 L 232,304" fill="none" stroke="black"/>
<path d="M 248,304 L 256,304" fill="none" stroke="black"/>
<path d="M 448,304 L 472,304" fill="none" stroke="black"/>
<path d="M 488,304 L 512,304" fill="none" stroke="black"/>
<path d="M 544,304 L 552,304" fill="none" stroke="black"/>
<path d="M 576,304 L 592,304" fill="none" stroke="black"/>
<path d="M 696,304 L 728,304" fill="none" stroke="black"/>
<path d="M 16,320 L 120,320" fill="none" stroke="black"/>
<path d="M 696,336 L 728,336" fill="none" stroke="black"/>
<path d="M 160,352 L 248,352" fill="none" stroke="black"/>
<path d="M 320,368 L 352,368" fill="none" stroke="black"/>
<path d="M 352,366 L 376,366" fill="none" stroke="black"/><path d="M 352,370 L 376,370" fill="none" stroke="black"/>
<path d="M 380,368 L 400,368" fill="none" stroke="black"/>
<path d="M 160,384 L 248,384" fill="none" stroke="black"/>
<path d="M 632,384 L 648,384" fill="none" stroke="black"/>
<path d="M 680,382 L 712,382" fill="none" stroke="black"/><path d="M 680,386 L 712,386" fill="none" stroke="black"/>
<path d="M 80,416 Q 82,412 84,416 Q 86,420 88,416 Q 90,412 92,416 Q 94,420 96,416 Q 98,412 100,416 Q 102,420 104,416 " fill="none" stroke="black"/>
<path d="M 192,416 Q 194,412 196,416 Q 198,420 200,416 Q 202,412 204,416 Q 206,420 208,416 Q 210,412 212,416 Q 214,420 216,416 " fill="none" stroke="black"/>
<path d="M 304,416 Q 306,412 308,416 Q 310,420 312,416 Q 314,412 316,416 Q 318,420 320,416 Q 322,412 324,416 Q 326,420 328,416 " fill="none" stroke="black"/>
<path d="M 416,416 Q 418,412 420,416 Q 422,420 424,416 Q 426,412 428,416 Q 430,420 432,416 Q 434,412 436,416 Q 438,420 440,416 Q 442,412 444,416 Q 446,420 448,416 " fill="none" stroke="black"/>
<path d="M 536,416 Q 538,412 540,416 Q 542,420 544,416 Q 546,412 548,416 Q 550,420 552,416 Q 554,412 556,416 Q 558,420 560,416 Q 562,412 564,416 Q 566,420 568,416 Q 570,412 572,416 Q 574,420 576,416 Q 578,412 580,416 Q 582,420 584,416 Q 586,412 588,416 Q 590,420 592,416 Q 594,412 596,416 Q 598,420 600,416 Q 602,412 604,416 Q 606,420 608,416 Q 610,412 612,416 Q 614,420 616,416 Q 618,412 620,416 Q 622,420 624,416 Q 626,412 628,416 Q 630,420 632,416 Q 634,412 636,416 Q 638,420 640,416 Q 642,412 644,416 Q 646,420 648,416 Q 650,412 652,416 Q 654,420 656,416 Q 658,412 660,416 Q 662,420 664,416 Q 666,412 668,416 Q 670,420 672,416 Q 674,412 676,416 Q 678,420 680,416 " fill="none" stroke="black"/>
<path d="M 8,448 L 36,448" fill="none" stroke="black"/>
<path d="M 36,446 L 68,446" fill="none" stroke="black"/><path d="M 36,450 L 68,450" fill="none" stroke="black"/>
<path d="M 68,448 L 100,448" fill="none" stroke="black"/>
<path d="M 100,446 L 132,446" fill="none" stroke="black"/><path d="M 100,450 L 132,450" fill="none" stroke="black"/>
<path d="M 132,448 L 164,448" fill="none" stroke="black"/>
<path d="M 164,446 L 196,446" fill="none" stroke="black"/><path d="M 164,450 L 196,450" fill="none" stroke="black"/>
<path d="M 196,448 L 228,448" fill="none" stroke="black"/>
<path d="M 228,446 L 260,446" fill="none" stroke="black"/><path d="M 228,450 L 260,450" fill="none" stroke="black"/>
<path d="M 260,448 L 296,448" fill="none" stroke="black"/>
<path d="M 320,448 L 360,448" fill="none" stroke="black"/>
<path d="M 384,448 L 424,448" fill="none" stroke="black"/>
<path d="M 448,448 L 484,448" fill="none" stroke="black"/>
<path d="M 484,446 L 516,446" fill="none" stroke="black"/><path d="M 484,450 L 516,450" fill="none" stroke="black"/>
<path d="M 516,448 L 548,448" fill="none" stroke="black"/>
<path d="M 548,446 L 580,446" fill="none" stroke="black"/><path d="M 548,450 L 580,450" fill="none" stroke="black"/>
<path d="M 580,448 L 612,448" fill="none" stroke="black"/>
<path d="M 612,446 L 644,446" fill="none" stroke="black"/><path d="M 612,450 L 644,450" fill="none" stroke="black"/>
<path d="M 644,448 L 676,448" fill="none" stroke="black"/>
<path d="M 676,446 L 708,446" fill="none" stroke="black"/><path d="M 676,450 L 708,450" fill="none" stroke="black"/>
<path d="M 708,448 L 736,448" fill="none" stroke="black"/>
<path d="M 200,224 L 216,256" fill="none" stroke="black"/>
<path d="M 232,288 L 248,320" fill="none" stroke="black"/>
<path d="M 448,256 L 472,304" fill="none" stroke="black"/>
<path d="M 384,96 L 408,144" fill="none" stroke="black"/>
<path d="M 560,272 L 576,304" fill="none" stroke="black"/>
<path d="M 536,192 L 560,240" fill="none" stroke="black"/>
<path d="M 648,256 L 672,304" fill="none" stroke="black"/>
<path d="M 672,208 L 696,256" fill="none" stroke="black"/>
<path d="M 272,144 L 296,96" fill="none" stroke="black"/>
<path d="M 240,256 L 256,224" fill="none" stroke="black"/>
<path d="M 232,320 L 248,288" fill="none" stroke="black"/>
<path d="M 344,384 L 360,352" fill="none" stroke="black"/>
<path d="M 488,304 L 512,256" fill="none" stroke="black"/>
<path d="M 560,240 L 584,192" fill="none" stroke="black"/>
<path d="M 656,160 L 672,128" fill="none" stroke="black"/>
<path d="M 648,256 L 672,208" fill="none" stroke="black"/>
<path d="M 728,160 L 744,128" fill="none" stroke="black"/>
<path d="M 672,304 L 696,256" fill="none" stroke="black"/>
<path d="M 456,32 C 447.16936,32 440,39.16936 440,48" fill="none" stroke="black"/>
<path d="M 456,32 C 464.83064,32 472,39.16936 472,48" fill="none" stroke="black"/>
<path d="M 440,32 C 460.8,32 460.8,64 440,64" fill="none" stroke="black"/>
<path d="M 472,32 C 451.2,32 451.2,64 472,64" fill="none" stroke="black"/>
<path d="M 456,64 C 447.16936,64 440,56.83064 440,48" fill="none" stroke="black"/>
<path d="M 456,64 C 464.83064,64 472,56.83064 472,48" fill="none" stroke="black"/>
<path d="M 32,96 C 23.16936,96 16,103.16936 16,112" fill="none" stroke="black"/>
<path d="M 200,96 C 191.16936,96 184,103.16936 184,112" fill="none" stroke="black"/>
<path d="M 248,96 C 256.83064,96 264,103.16936 264,112" fill="none" stroke="black"/>
<path d="M 200,128 C 191.16936,128 184,120.83064 184,112" fill="none" stroke="black"/>
<path d="M 208,128 C 216.83064,128 224,135.16936 224,144" fill="none" stroke="black"/>
<path d="M 240,128 C 231.16936,128 224,135.16936 224,144" fill="none" stroke="black"/>
<path d="M 248,128 C 256.83064,128 264,120.83064 264,112" fill="none" stroke="black"/>
<path d="M 152,144 C 160.83064,144 168,136.83064 168,128" fill="none" stroke="black"/>
<path d="M 192,144 C 183.16936,144 176,151.16936 176,160" fill="none" stroke="black"/>
<path d="M 200,144 C 208.83064,144 216,151.16936 216,160" fill="none" stroke="black"/>
<path d="M 240,160 C 231.16936,160 224,152.83064 224,144" fill="none" stroke="black"/>
<path d="M 256,160 C 264.83064,160 272,167.16936 272,176" fill="none" stroke="black"/>
<path d="M 160,192 C 168.83064,192 176,184.83064 176,176" fill="none" stroke="black"/>
<path d="M 232,192 C 223.16936,192 216,184.83064 216,176" fill="none" stroke="black"/>
<path d="M 256,192 C 264.83064,192 272,184.83064 272,176" fill="none" stroke="black"/>
<path d="M 416,208 C 424.83064,208 432,215.16936 432,224" fill="none" stroke="black"/>
<path d="M 416,240 C 424.83064,240 432,232.83064 432,224" fill="none" stroke="black"/>
<path d="M 592,256 C 583.16936,256 576,263.16936 576,272" fill="none" stroke="black"/>
<path d="M 592,256 C 600.83064,256 608,263.16936 608,272" fill="none" stroke="black"/>
<path d="M 704,256 C 712.83064,256 720,248.83064 720,240" fill="none" stroke="black"/>
<path d="M 544,272 C 535.16936,272 528,279.16936 528,288" fill="none" stroke="black"/>
<path d="M 336,304 C 327.16936,304 320,296.83064 320,288" fill="none" stroke="black"/>
<path d="M 336,304 C 344.83064,304 352,296.83064 352,288" fill="none" stroke="black"/>
<path d="M 544,304 C 535.16936,304 528,296.83064 528,288" fill="none" stroke="black"/>
<path d="M 592,304 C 600.83064,304 608,296.83064 608,288" fill="none" stroke="black"/>
<path d="M 656,336 C 647.16936,336 640,343.16936 640,352" fill="none" stroke="black"/>
<path d="M 656,336 C 664.83064,336 672,328.83064 672,320" fill="none" stroke="black"/>
<path d="M 32,352 C 23.16936,352 16,359.16936 16,368" fill="none" stroke="black"/>
<path d="M 32,352 C 40.83064,352 48,359.16936 48,368" fill="none" stroke="black"/>
<path d="M 160,352 C 151.16936,352 144,359.16936 144,368" fill="none" stroke="black"/>
<path d="M 248,352 C 256.83064,352 264,359.16936 264,368" fill="none" stroke="black"/>
<path d="M 32,384 C 23.16936,384 16,376.83064 16,368" fill="none" stroke="black"/>
<path d="M 32,384 C 40.83064,384 48,376.83064 48,368" fill="none" stroke="black"/>
<path d="M 160,384 C 151.16936,384 144,376.83064 144,368" fill="none" stroke="black"/>
<path d="M 248,384 C 256.83064,384 264,376.83064 264,368" fill="none" stroke="black"/>
<path d="M 168,40 L 192,40" fill="none" stroke="black"/>
<path d="M 216,40 L 240,40" fill="none" stroke="black"/>
<path d="M 264,40 L 288,40" fill="none" stroke="black"/>
<path d="M 296,456 L 320,456" fill="none" stroke="black"/>
<path d="M 360,456 L 384,456" fill="none" stroke="black"/>
<path d="M 424,456 L 448,456" fill="none" stroke="black"/>
<polygon class="arrowhead" points="760,64 748,58.4 748,69.6" fill="black" transform="rotate(0,752,64)"/>
<polygon class="arrowhead" points="744,72 732,66.4 732,77.6" fill="black" transform="rotate(270,736,72)"/>
<polygon class="arrowhead" points="728,168 716,162.4 716,173.6" fill="black" transform="rotate(270,720,168)"/>
<polygon class="arrowhead" points="720,344 708,338.4 708,349.6" fill="black" transform="rotate(270,712,344)"/>
<polygon class="arrowhead" points="712,56 700,50.4 700,61.6" fill="black" transform="rotate(90,704,56)"/>
<polygon class="arrowhead" points="680,200 668,194.4 668,205.6" fill="black" transform="rotate(90,672,200)"/>
<polygon class="arrowhead" points="680,72 668,66.4 668,77.6" fill="black" transform="rotate(270,672,72)"/>
<polygon class="arrowhead" points="680,56 668,50.4 668,61.6" fill="black" transform="rotate(90,672,56)"/>
<polygon class="arrowhead" points="656,64 644,58.4 644,69.6" fill="black" transform="rotate(180,648,64)"/>
<polygon class="arrowhead" points="648,376 636,370.4 636,381.6" fill="black" transform="rotate(90,640,376)"/>
<path class="jump" d="M 592,136 C 598,136 598,120 592,120" fill="none" stroke="black"/><path class="jump" d="M 576,88 C 570,88 570,72 576,72" fill="none" stroke="black"/><polygon class="arrowhead" points="488,48 476,42.4 476,53.6" fill="black" transform="rotate(180,480,48)"/>
<polygon class="arrowhead" points="456,416 444,410.4 444,421.6" fill="black" transform="rotate(0,448,416)"/>
<polygon class="arrowhead" points="424,416 412,410.4 412,421.6" fill="black" transform="rotate(180,416,416)"/>
<polygon class="arrowhead" points="408,240 396,234.4 396,245.6" fill="black" transform="rotate(180,400,240)"/>
<polygon class="arrowhead" points="400,48 388,42.4 388,53.6" fill="black" transform="rotate(90,392,48)"/>
<polygon class="arrowhead" points="400,16 388,10.4 388,21.6" fill="black" transform="rotate(270,392,16)"/>
<polygon class="arrowhead" points="392,368 380,362.4 380,373.6" fill="black" transform="rotate(180,384,368)"/>
<polygon class="arrowhead" points="360,264 348,258.4 348,269.6" fill="black" transform="rotate(270,352,264)"/>
<polygon class="arrowhead" points="344,184 332,178.4 332,189.6" fill="black" transform="rotate(90,336,184)"/>
<polygon class="arrowhead" points="336,416 324,410.4 324,421.6" fill="black" transform="rotate(0,328,416)"/>
<polygon class="arrowhead" points="328,368 316,362.4 316,373.6" fill="black" transform="rotate(180,320,368)"/>
<polygon class="arrowhead" points="320,32 308,26.4 308,37.6" fill="black" transform="rotate(0,312,32)"/>
<polygon class="arrowhead" points="296,224 284,218.4 284,229.6" fill="black" transform="rotate(0,288,224)"/>
<polygon class="arrowhead" points="200,416 188,410.4 188,421.6" fill="black" transform="rotate(180,192,416)"/>
<polygon class="arrowhead" points="192,344 180,338.4 180,349.6" fill="black" transform="rotate(90,184,344)"/>
<polygon class="arrowhead" points="168,304 156,298.4 156,309.6" fill="black" transform="rotate(0,160,304)"/>
<polygon class="arrowhead" points="144,192 132,186.4 132,197.6" fill="black" transform="rotate(180,136,192)"/>
<polygon class="arrowhead" points="144,176 132,170.4 132,181.6" fill="black" transform="rotate(0,136,176)"/>
<polygon class="arrowhead" points="56,176 44,170.4 44,181.6" fill="black" transform="rotate(180,48,176)"/>
<polygon class="arrowhead" points="24,320 12,314.4 12,325.6" fill="black" transform="rotate(180,16,320)"/>
<circle cx="184" cy="304" r="6" class="dotteddot" fill="white" stroke="black" stroke-dasharray="0,1.8"/>
<circle cx="240" cy="304" r="6" class="shadeddot" fill="#666" stroke="black"/>
<circle cx="456" cy="48" r="6" class="closeddot" fill="black"/>
<circle cx="544" cy="80" r="6" class="closeddot" fill="black"/>
<g class="text">
<text x="64" y="36">A Box</text>
<text x="208" y="84">Round</text>
<text x="96" y="116">Mixed Rounded</text>
<text x="336" y="116">Diagonals</text>
<text x="92" y="132">&amp; Square Corners</text>
<text x="700" y="148">Search</text>
<text x="500" y="180">Interior</text>
<text x="224" y="212">Diag line</text>
<text x="84" y="228">if (a &gt; b)</text>
<text x="488" y="228">Curved line</text>
<text x="84" y="244">obj-&gt;fcn()</text>
<text x="672" y="260">Done?</text>
<text x="148" y="292">Join</text>
<text x="388" y="292">Curved</text>
<text x="396" y="308">Vertical</text>
<text x="712" y="324">3</text>
<text x="452" y="340">not:line</text>
<text x="548" y="340">'quotes'</text>
<text x="484" y="356">A || B</text>
<text x="556" y="356">*bold*</text>
<text x="208" y="372">Not a dot</text>
<text x="520" y="372">A dash--is not a line</text>
<text x="484" y="388">Nor/is this.</text>
<text x="36" y="420">squiggle</text>
<text x="148" y="420">squiggle</text>
<text x="260" y="420">squiggle</text>
<text x="372" y="420">squiggle</text>
<text x="492" y="420">squiggle</text>
</g>
</svg>
