<svg xmlns="http://www.w3.org/2000/svg" version="1.1" height="432" width="760" viewBox="0 0 760 432" class="aasvg">
<style>
:root { color-scheme: light dark; --aasvg-b: light-dark(black, white); --aasvg-w: light-dark(white, black); }
* { fill: none; stroke: var(--aasvg-b); stroke-linecap: round; }
.dashed { stroke-dasharray: 3,6; }
text { font: 13px monospace; text-anchor: middle; fill: var(--aasvg-b); stroke: none; }
polygon.arrowhead, .triangle { fill: var(--aasvg-b); stroke: none; }
.dot.closed { fill: var(--aasvg-b); }
.dot:is(.open, .xor) { fill: var(--aasvg-w); }
.dot.dotted { fill: var(--aasvg-w); stroke-dasharray: 0,1.8; }
.dot.shaded { fill: #666; }
.backdrop { fill: var(--aasvg-w); stroke: none; opacity: 0.9; }
</style>
<rect class="backdrop" x="0" y="0" width="760" height="432" rx="3px" ry="3px"/>
<path d="M 8,16L 8,64"/>
<path d="M 16,112L 16,144"/>
<path d="M 16,208L 16,256"/>
<path d="M 40,144L 40,192"/>
<path d="M 40,272L 40,320"/>
<path d="M 72,272q 3.2,4 0,8 q -3.2,4 0,8 q 3.2,4 0,8 q -3.2,4 0,8 q 3.2,4 0,8 q -3.2,4 0,8 "/>
<path d="M 120,272L 120,320"/>
<path d="M 144,144L 144,184"/>
<path d="M 168,16L 168,64"/>
<path d="M 168,96L 168,128"/>
<path d="M 168,208L 168,256"/>
<path d="M 176,160L 176,176"/>
<path d="M 184,304L 184,350.81765"/>
<path d="M 192,32L 192,40"/>
<path d="M 216,32L 216,40"/>
<path d="M 216,160L 216,176"/>
<path d="M 240,40L 240,48"/>
<path d="M 240,288L 240,320"/>
<path d="M 264,40L 264,48"/>
<path d="M 288,32L 288,40"/>
<path d="M 288,288L 288,312"/>
<path d="M 290,312L 290,344"/><path d="M 286,312L 286,344"/>
<path d="M 288,344L 288,368"/>
<path d="M 296,192L 296,256"/>
<path d="M 312,208L 312,240"/>
<path d="M 320,256L 320,288"/>
<path d="M 328,416L 328,424"/>
<path d="M 352,257.18235L 352,288"/>
<path d="M 352,416L 352,424"/>
<path d="M 376,208L 376,240"/>
<path d="M 394,13.46807L 394,50.53193"/><path d="M 390,13.46807L 390,50.53193"/>
<path d="M 392,192L 392,256"/>
<path d="M 392,416L 392,424"/>
<path d="M 416,416L 416,424"/>
<path d="M 448,256L 448,304"/>
<path d="M 464,96L 464,160"/>
<path d="M 472,256L 472,304"/>
<path d="M 488,256L 488,304"/>
<path d="M 496,104L 496,152"/>
<path d="M 512,256L 512,304"/>
<path d="M 528,96L 528,160"/>
<path d="M 560,240L 560,272"/>
<path d="M 576,16L 576,72"/>
<path d="M 576,88L 576,128"/>
<path d="M 592,80L 592,120"/>
<path d="M 592,136L 592,160"/>
<path d="M 608,16L 608,128"/>
<path d="M 608,272L 608,288"/>
<path d="M 642,32L 642,64"/><path d="M 638,32L 638,64"/>
<path d="M 640,64L 640,96"/>
<path d="M 640,352L 640,382.81765"/>
<path d="M 674,32L 674,58.53193"/><path d="M 670,32L 670,58.53193"/>
<path d="M 672,65.18235L 672,96"/>
<path d="M 672,160L 672,206.81765"/>
<path d="M 672,304L 672,320"/>
<path d="M 696,304L 696,336"/>
<path d="M 704,32L 704,62.81765"/>
<path d="M 706,64L 706,96"/><path d="M 702,64L 702,96"/>
<path d="M 712,337.18235L 712,384"/>
<path d="M 720,161.18235L 720,240"/>
<path d="M 728,304L 728,336"/>
<path d="M 736,32L 736,64"/>
<path d="M 738,69.46807L 738,96"/><path d="M 734,69.46807L 734,96"/>
<path d="M 8,16L 168,16"/>
<path d="M 576,16L 608,16"/>
<path d="M 192,32L 216,32"/>
<path d="M 288,32L 318.81765,32"/>
<path d="M 240,48L 264,48"/>
<path d="M 473.18235,48L 504,48"/>
<path d="M 8,64L 168,64"/>
<path d="M 608,64L 640,64"/>
<path d="M 645.46807,62L 704,62"/><path d="M 645.46807,66L 704,66"/>
<path d="M 704,64L 758.81765,64"/>
<path d="M 552,80L 592,80"/>
<path d="M 32,96L 168,96"/>
<path d="M 200,96L 248,96"/>
<path d="M 296,96L 384,96"/>
<path d="M 464,96L 528,96"/>
<path d="M 200,128L 208,128"/>
<path d="M 240,128L 248,128"/>
<path d="M 472,128L 520,128"/>
<path d="M 576,128L 608,128"/>
<path d="M 672,128L 744,128"/>
<path d="M 16,144L 152,144"/>
<path d="M 192,144L 200,144"/>
<path d="M 272,144L 408,144"/>
<path d="M 240,160L 256,160"/>
<path d="M 464,160L 528,160"/>
<path d="M 656,160L 728,160"/>
<path d="M 45.46807,174L 138.53193,174"/><path d="M 45.46807,178L 138.53193,178"/>
<path d="M 129.18235,192L 160,192"/>
<path d="M 232,192L 256,192"/>
<path d="M 296,192L 392,192"/>
<path d="M 512,192L 536,192"/>
<path d="M 584,192L 608,192"/>
<path d="M 16,208L 168,208"/>
<path d="M 312,208L 376,208"/>
<path d="M 392,208L 416,208"/>
<path d="M 168,224L 200,224"/>
<path d="M 256,224L 294.81765,224"/>
<path d="M 312,240L 376,240"/>
<path d="M 393.18235,240L 416,240"/>
<path d="M 16,256L 168,256"/>
<path d="M 216,256L 240,256"/>
<path d="M 296,256L 392,256"/>
<path d="M 448,256L 472,256"/>
<path d="M 488,256L 512,256"/>
<path d="M 696,256L 704,256"/>
<path d="M 40,272L 120,272"/>
<path d="M 544,272L 560,272"/>
<path d="M 120,304L 166.81765,304"/>
<path d="M 224,304L 232,304"/>
<path d="M 248,304L 256,304"/>
<path d="M 448,304L 472,304"/>
<path d="M 488,304L 512,304"/>
<path d="M 544,304L 552,304"/>
<path d="M 576,304L 592,304"/>
<path d="M 696,304L 728,304"/>
<path d="M 9.18235,320L 120,320"/>
<path d="M 696,336L 728,336"/>
<path d="M 160,352L 248,352"/>
<path d="M 313.18235,368L 352,368"/>
<path d="M 352,366L 376,366"/><path d="M 352,370L 376,370"/>
<path d="M 377.18235,368L 400,368"/>
<path d="M 160,384L 248,384"/>
<path d="M 632,384L 648,384"/>
<path d="M 8,416L 38.81765,416"/>
<path d="M 40,416q 2,-3.2 4,0 q 2,3.2 4,0 q 2,-3.2 4,0 q 2,3.2 4,0 q 2,-3.2 4,0 q 2,3.2 4,0 q 2,-3.2 4,0 l 2.81765,0"/>
<path d="M 72,416L 102.81765,416"/>
<path d="M 104,414L 130.53193,414"/><path d="M 104,418L 130.53193,418"/>
<path d="M 136,416q 2,-3.2 4,0 q 2,3.2 4,0 q 2,-3.2 4,0 q 2,3.2 4,0 q 2,-3.2 4,0 q 2,3.2 4,0 q 2,-3.2 4,0 l 2.81765,0"/>
<path d="M 168,414L 196,414"/><path d="M 168,418L 196,418"/>
<path d="M 196,416L 228,416"/>
<path d="M 228,414L 260,414"/><path d="M 228,418L 260,418"/>
<path d="M 260,416q 2,-3.2 4,0 q 2,3.2 4,0 q 2,-3.2 4,0 q 2,3.2 4,0 q 2,-3.2 4,0 q 2,3.2 4,0 q 2,-3.2 4,0 q 2,3.2 4,0 "/>
<path d="M 292,416L 328,416"/>
<path d="M 352,416L 392,416"/>
<path d="M 416,416L 452,416"/>
<path d="M 452,416q 2,-3.2 4,0 q 2,3.2 4,0 q 2,-3.2 4,0 q 2,3.2 4,0 q 2,-3.2 4,0 q 2,3.2 4,0 q 2,-3.2 4,0 q 2,3.2 4,0 "/>
<path d="M 484,414L 516,414"/><path d="M 484,418L 516,418"/>
<path d="M 516,416L 548,416"/>
<path d="M 548,414L 576,414"/><path d="M 548,418L 576,418"/>
<path d="M 577.18235,416 l 2.81765,0 q 2,3.2 4,0 q 2,-3.2 4,0 q 2,3.2 4,0 q 2,-3.2 4,0 q 2,3.2 4,0 q 2,-3.2 4,0 q 2,3.2 4,0 "/>
<path d="M 613.46807,414L 640,414"/><path d="M 613.46807,418L 640,418"/>
<path d="M 641.18235,416L 672,416"/>
<path d="M 673.18235,416 l 2.81765,0 q 2,3.2 4,0 q 2,-3.2 4,0 q 2,3.2 4,0 q 2,-3.2 4,0 q 2,3.2 4,0 q 2,-3.2 4,0 q 2,3.2 4,0 "/>
<path d="M 705.18235,416L 736,416"/>
<path d="M 80.95106,321.90211L 112,384"/>
<path d="M 200,224L 216,256"/>
<path d="M 232,288L 248,320"/>
<path d="M 336,144L 359.04894,190.09789"/>
<path d="M 448,256L 472,304"/>
<path d="M 384,96L 408,144"/>
<path d="M 560,272L 576,304"/>
<path d="M 536,192L 560,240"/>
<path d="M 648,256L 672,304"/>
<path d="M 672,208L 696,256"/>
<path d="M 272,144L 296,96"/>
<path d="M 240,256L 256,224"/>
<path d="M 232,320L 248,288"/>
<path d="M 344,384L 360,352"/>
<path d="M 488,304L 512,256"/>
<path d="M 560,240L 584,192"/>
<path d="M 656,160L 672,128"/>
<path d="M 648,256L 672,208"/>
<path d="M 728,160L 744,128"/>
<path d="M 672,304L 696,256"/>
<path d="M 456,32C 447.16936,32 440,39.16936 440,48"/>
<path d="M 456,32C 464.83064,32 472,39.16936 472,48"/>
<path d="M 456,64C 447.16936,64 440,56.83064 440,48"/>
<path d="M 456,64C 464.83064,64 472,56.83064 472,48"/>
<path d="M 32,96C 23.16936,96 16,103.16936 16,112"/>
<path d="M 200,96C 191.16936,96 184,103.16936 184,112"/>
<path d="M 248,96C 256.83064,96 264,103.16936 264,112"/>
<path d="M 200,128C 191.16936,128 184,120.83064 184,112"/>
<path d="M 208,128C 216.83064,128 224,135.16936 224,144"/>
<path d="M 240,128C 231.16936,128 224,135.16936 224,144"/>
<path d="M 248,128C 256.83064,128 264,120.83064 264,112"/>
<path d="M 152,144C 160.83064,144 168,136.83064 168,128"/>
<path d="M 192,144C 183.16936,144 176,151.16936 176,160"/>
<path d="M 200,144C 208.83064,144 216,151.16936 216,160"/>
<path d="M 240,160C 231.16936,160 224,152.83064 224,144"/>
<path d="M 256,160C 264.83064,160 272,167.16936 272,176"/>
<path d="M 160,192C 168.83064,192 176,184.83064 176,176"/>
<path d="M 232,192C 223.16936,192 216,184.83064 216,176"/>
<path d="M 256,192C 264.83064,192 272,184.83064 272,176"/>
<path d="M 416,208C 424.83064,208 432,215.16936 432,224"/>
<path d="M 416,240C 424.83064,240 432,232.83064 432,224"/>
<path d="M 592,256C 583.16936,256 576,263.16936 576,272"/>
<path d="M 592,256C 600.83064,256 608,263.16936 608,272"/>
<path d="M 704,256C 712.83064,256 720,248.83064 720,240"/>
<path d="M 544,272C 535.16936,272 528,279.16936 528,288"/>
<path d="M 336,304C 327.16936,304 320,296.83064 320,288"/>
<path d="M 336,304C 344.83064,304 352,296.83064 352,288"/>
<path d="M 544,304C 535.16936,304 528,296.83064 528,288"/>
<path d="M 592,304C 600.83064,304 608,296.83064 608,288"/>
<path d="M 656,336C 647.16936,336 640,343.16936 640,352"/>
<path d="M 656,336C 664.83064,336 672,328.83064 672,320"/>
<path d="M 32,352C 23.16936,352 16,359.16936 16,368"/>
<path d="M 32,352C 40.83064,352 48,359.16936 48,368"/>
<path d="M 160,352C 151.16936,352 144,359.16936 144,368"/>
<path d="M 248,352C 256.83064,352 264,359.16936 264,368"/>
<path d="M 32,384C 23.16936,384 16,376.83064 16,368"/>
<path d="M 32,384C 40.83064,384 48,376.83064 48,368"/>
<path d="M 160,384C 151.16936,384 144,376.83064 144,368"/>
<path d="M 248,384C 256.83064,384 264,376.83064 264,368"/>
<path d="M 168,40L 192,40"/>
<path d="M 216,40L 240,40"/>
<path d="M 264,40L 288,40"/>
<path d="M 328,424L 352,424"/>
<path d="M 392,424L 416,424"/>
<polygon class="arrowhead" points="760,64 748,58.4 748,69.6"/>
<polygon class="arrowhead" points="736,64 730.4,76 741.6,76"/>
<polygon class="arrowhead" points="720,160 714.4,172 725.6,172"/>
<polygon class="arrowhead" points="704,416 716,421.6 716,410.4"/>
<polygon class="arrowhead" points="712,336 706.4,348 717.6,348"/>
<polygon class="arrowhead" points="704,64 709.6,52 698.4,52"/>
<polygon class="arrowhead" points="672,416 684,421.6 684,410.4"/>
<polygon class="arrowhead" points="672,208 677.6,196 666.4,196"/>
<polygon class="arrowhead" points="672,64 666.4,76 677.6,76"/>
<polygon class="arrowhead" points="672,64 677.6,52 666.4,52"/>
<polygon class="arrowhead" points="640,416 652,421.6 652,410.4"/>
<polygon class="arrowhead" points="640,64 652,69.6 652,58.4"/>
<polygon class="arrowhead" points="640,384 645.6,372 634.4,372"/>
<polygon class="arrowhead" points="608,416 620,421.6 620,410.4"/>
<path class="jump" d="M 592,136 C 598,136 598,120 592,120"/>
<polygon class="arrowhead" points="576,416 588,421.6 588,410.4"/>
<path class="jump" d="M 576,88 C 570,88 570,72 576,72"/>
<polygon class="arrowhead" points="472,48 484,53.6 484,42.4"/>
<polygon class="arrowhead" points="392,240 404,245.6 404,234.4"/>
<polygon class="arrowhead" points="392,56 397.6,44 386.4,44"/>
<polygon class="arrowhead" points="392,8 386.4,20 397.6,20"/>
<polygon class="arrowhead" points="376,368 388,373.6 388,362.4"/>
<polygon class="arrowhead" points="352,256 346.4,268 357.6,268"/>
<polygon class="arrowhead" points="359.57771,191.15542 359.21994,177.9179 349.20235,182.92669"/>
<polygon class="arrowhead" points="312,368 324,373.6 324,362.4"/>
<polygon class="arrowhead" points="320,32 308,26.4 308,37.6"/>
<polygon class="arrowhead" points="296,224 284,218.4 284,229.6"/>
<polygon class="arrowhead" points="184,352 189.6,340 178.4,340"/>
<polygon class="arrowhead" points="168,416 156,410.4 156,421.6"/>
<polygon class="arrowhead" points="168,304 156,298.4 156,309.6"/>
<polygon class="arrowhead" points="128,192 140,197.6 140,186.4"/>
<polygon class="arrowhead" points="144,176 132,170.4 132,181.6"/>
<polygon class="arrowhead" points="136,416 124,410.4 124,421.6"/>
<polygon class="arrowhead" points="104,416 92,410.4 92,421.6"/>
<polygon class="arrowhead" points="80.42229,320.84458 80.78006,334.0821 90.79765,329.07331"/>
<polygon class="arrowhead" points="72,416 60,410.4 60,421.6"/>
<polygon class="arrowhead" points="40,176 52,181.6 52,170.4"/>
<polygon class="arrowhead" points="40,416 28,410.4 28,421.6"/>
<polygon class="arrowhead" points="8,320 20,325.6 20,314.4"/>
<circle cx="184" cy="304" r="7" class="dot dotted"/>
<circle cx="240" cy="304" r="7" class="dot shaded"/>
<circle cx="456" cy="48" r="7" class="dot closed"/>
<circle cx="544" cy="80" r="7" class="dot closed"/>
<g class="text">
<text x="64" y="36">A Box</text>
<text x="208" y="84">Round</text>
<text x="96" y="116">Mixed Rounded</text>
<text x="336" y="116">Diagonals</text>
<text x="92" y="132">&amp; Square Corners</text>
<text x="700" y="148">Search</text>
<text x="500" y="180">Interior</text>
<text x="224" y="212">Diag line</text>
<text x="84" y="228">if (a &gt; b)</text>
<text x="488" y="228">Curved line</text>
<text x="84" y="244">obj-&gt;fcn()</text>
<text x="672" y="260">Done?</text>
<text x="148" y="292">Join</text>
<text x="388" y="292">Curved</text>
<text x="396" y="308">Vertical</text>
<text x="712" y="324">3</text>
<text x="452" y="340">not:line</text>
<text x="548" y="340">'quotes'</text>
<text x="484" y="356">A || B</text>
<text x="556" y="356">*bold*</text>
<text x="208" y="372">Not a dot</text>
<text x="520" y="372">A dash--is not a line</text>
<text x="484" y="388">Nor/is this.</text>
</g>
</svg>
